# xmcd
#
# Track frame offsets: 
#        150
#        13528
#        33758
#        50195
#        68073
#        85648
#        100713
#        119278
#        140895
#        154015
#        175308
#
# Disc length: 2523 seconds
#
# Revision: 8
# Processed by: cddbd v1.5.2PL0 Copyright (c) Steve Scherf et al.
# Submitted via: ExactAudioCopy v1.3
#
DISCID=8a09d90b
DTITLE=Dwight Yoakam - This Time
DYEAR=1993
DGENRE=Country
TTITLE0=Pocket Of A Clown
TTITLE1=A Thousand Miles From Nowhere
TTITLE2=Home For Sale
TTITLE3=This Time
TTITLE4=Two Doors Down
TTITLE5=Ain't That Lonely Yet
TTITLE6=King Of Fools
TTITLE7=Fast As You
TTITLE8=Try Not To Look So Pretty
TTITLE9=Wild Ride
TTITLE10=Lonesome Roads
EXTD=YEAR: 1993 ID3G: 2
EXTT0=
EXTT1=
EXTT2=
EXTT3=
EXTT4=
EXTT5=
EXTT6=
EXTT7=
EXTT8=
EXTT9=
EXTT10=
PLAYORDER=
